<svg width="18" height="20" viewBox="0 0 18 20" fill="none" xmlns="http://www.w3.org/2000/svg">
<path d="M12.2309 1.39992C11.3947 0.497149 10.2268 0 8.93775 0C7.64181 0 6.47005 0.494141 5.63775 1.39133C4.79642 2.2984 4.3865 3.53117 4.48275 4.86234C4.67353 7.48859 6.672 9.625 8.93775 9.625C11.2035 9.625 13.1985 7.48902 13.3923 4.8632C13.4899 3.54406 13.0774 2.31387 12.2309 1.39992ZM16.5002 19.25H1.37525C1.17727 19.2526 0.981217 19.211 0.80134 19.1283C0.621463 19.0455 0.46229 18.9237 0.335402 18.7718C0.0561051 18.4379 -0.056473 17.982 0.0268864 17.5209C0.389543 15.5091 1.52134 13.8192 3.30025 12.6328C4.88064 11.5796 6.88255 11 8.93775 11C10.9929 11 12.9949 11.5801 14.5752 12.6328C16.3542 13.8188 17.4859 15.5087 17.8486 17.5205C17.932 17.9816 17.8194 18.4375 17.5401 18.7713C17.4132 18.9234 17.2541 19.0453 17.0742 19.1281C16.8943 19.2109 16.6983 19.2525 16.5002 19.25Z" fill="#41403E"/>
</svg>
