<svg width="240" height="214" viewBox="0 0 240 214" fill="none" xmlns="http://www.w3.org/2000/svg">
<path d="M111.753 48.0201C124.25 56.4334 135.329 42.4239 133.571 28.7736C132.947 24.0659 131.17 19.7553 128.183 16.4656C123.305 11.0584 113.133 10.4912 109.428 16.2009C103.415 25.3893 100.958 40.7412 111.753 48.0201ZM77.3815 36.8087C90.7104 43.6906 100.523 28.3387 97.4788 14.8586C96.439 10.2454 94.2459 6.12387 90.9562 3.1934C85.5679 -1.6466 75.3585 -0.98488 72.1445 5.17856C66.9453 15.0854 65.9243 30.8154 77.3815 36.8087ZM18.7343 34.7668C12.7977 31.0234 3.40134 35.4853 1.03806 42.3671C-0.398812 46.5454 -0.304281 51.1964 1.07588 55.7528C5.17853 68.9682 21.5702 77.4193 29.9079 64.8278C37.0923 54.0512 28.3009 40.8546 18.7343 34.7668ZM56.7548 41.4786C64.6198 31.704 57.2463 17.6378 48.5117 10.4534C43.0856 6.02934 33.6135 9.2434 30.7587 15.7472C29.0193 19.6607 28.7546 24.2928 29.6999 28.9437C32.517 42.4428 47.6609 52.8412 56.7548 41.4786ZM113.511 73.6948C109.314 60.1768 94.1135 54.3159 83.4882 52.9735C67.6448 50.9884 50.4212 59.4206 42.6129 76.0581C39.4745 82.7509 35.0315 94.5484 39.2476 102.092C45.0707 112.434 59.7042 105.817 66.7373 102.073C75.0749 97.5545 81.711 93.5653 91.2965 95.0967L92.3174 95.2668C104.436 96.8361 119.505 92.9035 113.511 73.6948ZM126.935 150.435C120.658 147.769 112.566 153.933 111.526 161.136C110.902 165.504 111.829 170.098 113.946 174.333C120.091 186.641 137.106 192.086 142.778 178.114C147.656 166.052 137.031 154.689 126.935 150.435ZM165.012 149.622C171.175 138.26 161.552 125.782 151.702 120.45C145.614 117.141 136.766 122.284 134.97 129.317C133.892 133.571 134.384 138.222 136.104 142.627C141.096 155.502 157.809 162.781 165.012 149.622ZM238.898 122.7C237.48 118.143 234.984 114.249 231.467 111.564C225.663 107.178 215.378 108.728 212.542 115.156C208.005 125.536 208.062 141.398 220.067 146.333C234.001 152.118 242.887 135.934 238.898 122.7ZM184.731 141.965C198.608 146.314 205.377 129.222 200.159 116.442C198.363 112.056 195.546 108.35 191.916 106.062C185.922 102.281 176.261 104.89 174.238 111.602C171.024 122.454 172.745 138.241 184.731 141.965ZM215.756 162.743C200.007 153.309 180.988 155.956 168.963 166.43C160.89 173.482 151.57 186.811 155.634 200.386C161.401 219.67 176.091 214.509 185.242 206.436L186.017 205.717C193.107 199.119 200.839 198.703 210.274 197.814C218.195 197.001 234.058 194.298 233.074 182.481C232.394 173.841 222.09 166.543 215.756 162.743Z" fill="#F7EEE4"/>
</svg>
