<svg width="206" height="57" viewBox="0 0 206 57" fill="none" xmlns="http://www.w3.org/2000/svg">
<path d="M62.709 7.75781C62.709 7.4502 62.8229 7.18815 63.0508 6.97168C63.2786 6.74382 63.5407 6.62988 63.8369 6.62988C64.1217 6.62988 64.3724 6.73812 64.5889 6.95459C64.8053 7.17106 64.9193 7.42171 64.9307 7.70654C64.999 9.98519 65.1016 12.0986 65.2383 14.0469C65.375 15.9837 65.5516 17.7497 65.7681 19.3447C66.5086 24.8249 67.5568 28.0435 68.9126 29.0005C69.1063 29.1486 69.2601 29.2056 69.374 29.1714C69.4993 29.1372 69.6589 29.0461 69.8525 28.8979C70.1829 28.6359 70.5076 28.277 70.8267 27.8213C71.1571 27.3656 71.4932 26.8187 71.835 26.1807C72.1768 25.5426 72.4958 24.8249 72.792 24.0273C73.0996 23.2184 73.3958 22.3411 73.6807 21.3955C74.9225 17.18 75.6118 12.5658 75.7485 7.55273C75.7599 7.19954 75.8739 6.9375 76.0903 6.7666C76.3182 6.5957 76.5688 6.51025 76.8423 6.51025C77.1157 6.51025 77.3664 6.5957 77.5942 6.7666C77.8335 6.9375 77.9588 7.19385 77.9702 7.53564C78.3006 15.4198 79.3317 21.424 81.0635 25.5483C81.5648 26.7332 82.0661 27.6447 82.5674 28.2827C83.0915 28.9549 83.5073 29.3366 83.8149 29.4277C84.1567 29.5303 84.4302 29.5758 84.6353 29.5645C85.091 29.5303 85.5695 29.1429 86.0708 28.4023C86.686 27.5137 87.1759 26.4142 87.5405 25.104C87.9051 23.7938 88.1615 22.3582 88.3096 20.7974C88.4691 19.2251 88.5488 17.6073 88.5488 15.9438C88.5488 14.6222 88.509 13.3006 88.4292 11.979C88.3494 10.646 88.2412 9.36426 88.1045 8.13379C88.1045 8.08822 88.1045 8.04264 88.1045 7.99707C88.1045 7.65527 88.2184 7.39323 88.4463 7.21094C88.6855 7.02865 88.9476 6.9375 89.2324 6.9375C89.4831 6.9375 89.7166 7.01725 89.9331 7.17676C90.1496 7.32487 90.2749 7.56413 90.3091 7.89453C90.4458 9.17057 90.554 10.4865 90.6338 11.8423C90.7249 13.1867 90.7705 14.5254 90.7705 15.8584C90.7705 17.6927 90.6737 19.4757 90.48 21.2075C90.2977 22.9279 89.9958 24.5173 89.5742 25.9756C89.1641 27.4225 88.6058 28.653 87.8994 29.667C87.5348 30.1911 87.0677 30.6753 86.498 31.1196C85.9284 31.5754 85.2562 31.8032 84.4814 31.8032C84.0713 31.8032 83.6611 31.7292 83.251 31.5811C82.3623 31.262 81.5876 30.6753 80.9268 29.8208C80.5964 29.3879 80.2489 28.8353 79.8843 28.1631C79.5197 27.4909 79.1437 26.6991 78.7563 25.7876C77.9816 23.9419 77.3208 21.4126 76.7739 18.1997C75.9764 21.9595 74.9738 24.9844 73.7661 27.2744C72.3306 30.0202 70.8551 31.3931 69.3398 31.3931C68.793 31.3931 68.2347 31.2051 67.665 30.8291C66.7308 30.1797 65.9276 28.9948 65.2554 27.2744C64.5718 25.5085 63.9736 22.9735 63.4609 19.6694C62.9596 16.354 62.709 12.3835 62.709 7.75781ZM96.281 31.6665C96.0189 31.6665 95.7683 31.5526 95.529 31.3247C95.2897 31.1082 95.1815 30.8633 95.2043 30.5898C95.6145 25.0869 96.4974 20.1366 97.8532 15.7388C99.209 11.3638 100.827 8.46419 102.707 7.04004C103.481 6.45898 104.233 6.16846 104.963 6.16846C107.036 6.16846 108.979 8.4585 110.79 13.0386C112.374 17.0604 113.752 22.3354 114.926 28.8638L115.199 30.3677C115.211 30.436 115.217 30.4987 115.217 30.5557C115.217 30.8975 115.091 31.1595 114.841 31.3418C114.601 31.5355 114.339 31.6323 114.054 31.6323C113.815 31.6323 113.593 31.5583 113.388 31.4102C113.183 31.2734 113.052 31.0513 112.995 30.7437L112.738 29.2568C112.476 27.7871 112.203 26.3857 111.918 25.0527C111.633 23.7083 111.337 22.4323 111.029 21.2246H98.7761C98.1039 24.5514 97.6538 27.696 97.426 30.6582C97.4032 30.9544 97.2779 31.1937 97.05 31.376C96.8221 31.5697 96.5658 31.6665 96.281 31.6665ZM99.2717 19.0029H110.448C109.172 14.457 107.851 11.3239 106.484 9.60352C106.165 9.19336 105.846 8.89714 105.527 8.71484C105.23 8.55534 105.014 8.48128 104.877 8.49268C104.148 8.58382 103.43 9.15918 102.724 10.2188C101.357 12.2695 100.206 15.1976 99.2717 19.0029ZM145.695 9.55225C145.923 9.76872 146.037 10.0308 146.037 10.3384C146.037 10.7827 145.821 11.1245 145.388 11.3638C144.966 11.5916 144.567 11.5347 144.191 11.1929C143.223 10.3042 141.833 9.61491 140.021 9.125C138.221 8.63509 136.313 8.39014 134.296 8.39014C133.26 8.39014 132.24 8.4585 131.237 8.59521C127.546 9.34717 124.914 10.8568 123.342 13.124C122.829 13.8646 122.459 14.6279 122.231 15.4141C122.003 16.1888 121.889 16.9635 121.889 17.7383C121.889 19.151 122.202 20.5239 122.829 21.8569C123.456 23.1785 124.236 24.3407 125.17 25.3433C126.264 26.5168 127.643 27.4909 129.306 28.2656C130.969 29.0404 132.861 29.4277 134.98 29.4277C136.119 29.4277 137.287 29.3024 138.483 29.0518C139.383 28.8239 140.283 28.4707 141.183 27.9922C142.095 27.5137 142.91 26.9554 143.627 26.3174C144.357 25.6794 144.886 25.0072 145.217 24.3008C145.513 23.6742 145.661 23.0247 145.661 22.3525C145.661 21.6803 145.53 21.1733 145.268 20.8315C145.017 20.4784 144.653 20.2163 144.174 20.0454C143.707 19.8745 143.137 19.7093 142.465 19.5498C141.645 19.3561 140.591 19.2593 139.304 19.2593C138.666 19.2593 137.971 19.2821 137.219 19.3276C136.467 19.3618 135.76 19.4131 135.1 19.4814C134.439 19.5384 133.926 19.5954 133.561 19.6523L132.844 19.7549C132.787 19.7663 132.724 19.772 132.656 19.772C132.325 19.772 132.063 19.6523 131.87 19.4131C131.687 19.1624 131.596 18.8947 131.596 18.6099C131.596 18.3706 131.664 18.1484 131.801 17.9434C131.949 17.7269 132.183 17.5959 132.502 17.5503L133.22 17.4478C133.607 17.3908 134.137 17.3281 134.809 17.2598C135.481 17.1914 136.205 17.1344 136.979 17.0889C137.754 17.0433 138.489 17.0205 139.184 17.0205C140.665 17.0205 142.021 17.1572 143.251 17.4307C144.493 17.7041 145.513 18.137 146.31 18.7295C147.359 19.5156 147.883 20.7461 147.883 22.4209C147.883 24.7793 146.624 26.8984 144.106 28.7783C142.579 29.9176 140.87 30.7266 138.979 31.2051C137.6 31.4899 136.262 31.6323 134.963 31.6323C133.755 31.6323 132.576 31.507 131.425 31.2563C128.246 30.5614 125.62 29.0973 123.547 26.8643C122.419 25.6566 121.49 24.2609 120.761 22.6772C120.032 21.0822 119.667 19.4359 119.667 17.7383C119.667 16.7471 119.815 15.7559 120.112 14.7646C120.408 13.7734 120.881 12.805 121.53 11.8594C123.444 9.09082 126.543 7.2736 130.827 6.40771C130.838 6.40771 130.85 6.40771 130.861 6.40771C130.873 6.39632 130.884 6.39062 130.895 6.39062C132.001 6.24251 133.123 6.16846 134.262 6.16846C136.598 6.16846 138.797 6.47038 140.859 7.07422C142.921 7.66667 144.533 8.49268 145.695 9.55225ZM178.396 9.55225C178.623 9.76872 178.737 10.0308 178.737 10.3384C178.737 10.7827 178.521 11.1245 178.088 11.3638C177.666 11.5916 177.268 11.5347 176.892 11.1929C175.923 10.3042 174.533 9.61491 172.722 9.125C170.922 8.63509 169.013 8.39014 166.997 8.39014C165.96 8.39014 164.94 8.4585 163.938 8.59521C160.246 9.34717 157.614 10.8568 156.042 13.124C155.529 13.8646 155.159 14.6279 154.931 15.4141C154.703 16.1888 154.589 16.9635 154.589 17.7383C154.589 19.151 154.903 20.5239 155.529 21.8569C156.156 23.1785 156.936 24.3407 157.871 25.3433C158.964 26.5168 160.343 27.4909 162.006 28.2656C163.67 29.0404 165.561 29.4277 167.68 29.4277C168.82 29.4277 169.987 29.3024 171.184 29.0518C172.084 28.8239 172.984 28.4707 173.884 27.9922C174.795 27.5137 175.61 26.9554 176.328 26.3174C177.057 25.6794 177.587 25.0072 177.917 24.3008C178.213 23.6742 178.361 23.0247 178.361 22.3525C178.361 21.6803 178.23 21.1733 177.968 20.8315C177.718 20.4784 177.353 20.2163 176.875 20.0454C176.407 19.8745 175.838 19.7093 175.166 19.5498C174.345 19.3561 173.291 19.2593 172.004 19.2593C171.366 19.2593 170.671 19.2821 169.919 19.3276C169.167 19.3618 168.461 19.4131 167.8 19.4814C167.139 19.5384 166.626 19.5954 166.262 19.6523L165.544 19.7549C165.487 19.7663 165.424 19.772 165.356 19.772C165.026 19.772 164.764 19.6523 164.57 19.4131C164.388 19.1624 164.296 18.8947 164.296 18.6099C164.296 18.3706 164.365 18.1484 164.502 17.9434C164.65 17.7269 164.883 17.5959 165.202 17.5503L165.92 17.4478C166.307 17.3908 166.837 17.3281 167.509 17.2598C168.182 17.1914 168.905 17.1344 169.68 17.0889C170.455 17.0433 171.189 17.0205 171.884 17.0205C173.365 17.0205 174.721 17.1572 175.952 17.4307C177.194 17.7041 178.213 18.137 179.011 18.7295C180.059 19.5156 180.583 20.7461 180.583 22.4209C180.583 24.7793 179.324 26.8984 176.806 28.7783C175.28 29.9176 173.571 30.7266 171.679 31.2051C170.301 31.4899 168.962 31.6323 167.663 31.6323C166.456 31.6323 165.276 31.507 164.126 31.2563C160.947 30.5614 158.321 29.0973 156.247 26.8643C155.119 25.6566 154.191 24.2609 153.462 22.6772C152.732 21.0822 152.368 19.4359 152.368 17.7383C152.368 16.7471 152.516 15.7559 152.812 14.7646C153.108 13.7734 153.581 12.805 154.231 11.8594C156.145 9.09082 159.244 7.2736 163.527 6.40771C163.539 6.40771 163.55 6.40771 163.562 6.40771C163.573 6.39632 163.584 6.39062 163.596 6.39062C164.701 6.24251 165.823 6.16846 166.963 6.16846C169.298 6.16846 171.497 6.47038 173.559 7.07422C175.621 7.66667 177.233 8.49268 178.396 9.55225ZM190.964 32.3501C190.657 32.3501 190.394 32.2419 190.178 32.0254C189.962 31.8089 189.853 31.5469 189.853 31.2393C189.853 31.0798 189.887 30.9259 189.956 30.7778C190.788 28.9663 191.619 27.1548 192.451 25.3433C193.283 23.5203 194.114 21.7031 194.946 19.8916L185.325 8.20215C185.154 7.98568 185.068 7.75781 185.068 7.51855C185.068 7.22233 185.188 6.96029 185.427 6.73242C185.666 6.50456 185.934 6.39062 186.23 6.39062C186.549 6.39062 186.817 6.52734 187.033 6.80078L195.971 17.6357C196.849 15.6989 197.732 13.7677 198.62 11.8423C199.509 9.91683 200.392 7.99137 201.269 6.06592C201.349 5.89502 201.48 5.74691 201.662 5.62158C201.845 5.48486 202.05 5.4165 202.278 5.4165C202.585 5.4165 202.847 5.52474 203.064 5.74121C203.28 5.95768 203.388 6.21973 203.388 6.52734C203.388 6.68685 203.354 6.84066 203.286 6.98877L191.972 31.7007C191.893 31.8716 191.762 32.0197 191.579 32.145C191.397 32.2817 191.192 32.3501 190.964 32.3501Z" fill="#41403E"/>
<path d="M66.64 39.5C67.98 39.5 69.03 39.82 69.79 40.46C70.55 41.1 70.93 41.98 70.93 43.1C70.93 44.22 70.55 45.1 69.79 45.74C69.03 46.37 67.98 46.685 66.64 46.685H63.82V50H62.71V39.5H66.64ZM66.61 45.71C67.65 45.71 68.445 45.485 68.995 45.035C69.545 44.575 69.82 43.93 69.82 43.1C69.82 42.25 69.545 41.6 68.995 41.15C68.445 40.69 67.65 40.46 66.61 40.46H63.82V45.71H66.61ZM80.8312 46.385H74.2312C74.2912 47.205 74.6062 47.87 75.1762 48.38C75.7462 48.88 76.4662 49.13 77.3362 49.13C77.8262 49.13 78.2762 49.045 78.6862 48.875C79.0962 48.695 79.4512 48.435 79.7512 48.095L80.3512 48.785C80.0012 49.205 79.5612 49.525 79.0312 49.745C78.5112 49.965 77.9362 50.075 77.3062 50.075C76.4962 50.075 75.7762 49.905 75.1462 49.565C74.5262 49.215 74.0412 48.735 73.6912 48.125C73.3412 47.515 73.1662 46.825 73.1662 46.055C73.1662 45.285 73.3312 44.595 73.6612 43.985C74.0012 43.375 74.4612 42.9 75.0412 42.56C75.6312 42.22 76.2912 42.05 77.0212 42.05C77.7512 42.05 78.4062 42.22 78.9862 42.56C79.5662 42.9 80.0212 43.375 80.3512 43.985C80.6812 44.585 80.8462 45.275 80.8462 46.055L80.8312 46.385ZM77.0212 42.965C76.2612 42.965 75.6212 43.21 75.1012 43.7C74.5912 44.18 74.3012 44.81 74.2312 45.59H79.8262C79.7562 44.81 79.4612 44.18 78.9412 43.7C78.4312 43.21 77.7912 42.965 77.0212 42.965ZM88.0689 49.52C87.8689 49.7 87.6189 49.84 87.3189 49.94C87.0289 50.03 86.7239 50.075 86.4039 50.075C85.6639 50.075 85.0939 49.875 84.6939 49.475C84.2939 49.075 84.0939 48.51 84.0939 47.78V43.01H82.6839V42.11H84.0939V40.385H85.1589V42.11H87.5589V43.01H85.1589V47.72C85.1589 48.19 85.2739 48.55 85.5039 48.8C85.7439 49.04 86.0839 49.16 86.5239 49.16C86.7439 49.16 86.9539 49.125 87.1539 49.055C87.3639 48.985 87.5439 48.885 87.6939 48.755L88.0689 49.52ZM98.8534 50.09C98.0734 50.09 97.3234 49.965 96.6034 49.715C95.8934 49.465 95.3434 49.135 94.9534 48.725L95.3884 47.87C95.7684 48.25 96.2734 48.56 96.9034 48.8C97.5334 49.03 98.1834 49.145 98.8534 49.145C99.7934 49.145 100.498 48.975 100.968 48.635C101.438 48.285 101.673 47.835 101.673 47.285C101.673 46.865 101.543 46.53 101.283 46.28C101.033 46.03 100.723 45.84 100.353 45.71C99.9834 45.57 99.4684 45.42 98.8084 45.26C98.0184 45.06 97.3884 44.87 96.9184 44.69C96.4484 44.5 96.0434 44.215 95.7034 43.835C95.3734 43.455 95.2084 42.94 95.2084 42.29C95.2084 41.76 95.3484 41.28 95.6284 40.85C95.9084 40.41 96.3384 40.06 96.9184 39.8C97.4984 39.54 98.2184 39.41 99.0784 39.41C99.6784 39.41 100.263 39.495 100.833 39.665C101.413 39.825 101.913 40.05 102.333 40.34L101.958 41.225C101.518 40.935 101.048 40.72 100.548 40.58C100.048 40.43 99.5584 40.355 99.0784 40.355C98.1584 40.355 97.4634 40.535 96.9934 40.895C96.5334 41.245 96.3034 41.7 96.3034 42.26C96.3034 42.68 96.4284 43.02 96.6784 43.28C96.9384 43.53 97.2584 43.725 97.6384 43.865C98.0284 43.995 98.5484 44.14 99.1984 44.3C99.9684 44.49 100.588 44.68 101.058 44.87C101.538 45.05 101.943 45.33 102.273 45.71C102.603 46.08 102.768 46.585 102.768 47.225C102.768 47.755 102.623 48.24 102.333 48.68C102.053 49.11 101.618 49.455 101.028 49.715C100.438 49.965 99.7134 50.09 98.8534 50.09ZM109.882 42.05C110.872 42.05 111.657 42.34 112.237 42.92C112.827 43.49 113.122 44.325 113.122 45.425V50H112.057V45.53C112.057 44.71 111.852 44.085 111.442 43.655C111.032 43.225 110.447 43.01 109.687 43.01C108.837 43.01 108.162 43.265 107.662 43.775C107.172 44.275 106.927 44.97 106.927 45.86V50H105.862V38.87H106.927V43.49C107.217 43.03 107.617 42.675 108.127 42.425C108.637 42.175 109.222 42.05 109.882 42.05ZM120.168 50.075C119.408 50.075 118.723 49.905 118.113 49.565C117.503 49.215 117.023 48.735 116.673 48.125C116.323 47.515 116.148 46.825 116.148 46.055C116.148 45.285 116.323 44.595 116.673 43.985C117.023 43.375 117.503 42.9 118.113 42.56C118.723 42.22 119.408 42.05 120.168 42.05C120.928 42.05 121.613 42.22 122.223 42.56C122.833 42.9 123.308 43.375 123.648 43.985C123.998 44.595 124.173 45.285 124.173 46.055C124.173 46.825 123.998 47.515 123.648 48.125C123.308 48.735 122.833 49.215 122.223 49.565C121.613 49.905 120.928 50.075 120.168 50.075ZM120.168 49.13C120.728 49.13 121.228 49.005 121.668 48.755C122.118 48.495 122.468 48.13 122.718 47.66C122.968 47.19 123.093 46.655 123.093 46.055C123.093 45.455 122.968 44.92 122.718 44.45C122.468 43.98 122.118 43.62 121.668 43.37C121.228 43.11 120.728 42.98 120.168 42.98C119.608 42.98 119.103 43.11 118.653 43.37C118.213 43.62 117.863 43.98 117.603 44.45C117.353 44.92 117.228 45.455 117.228 46.055C117.228 46.655 117.353 47.19 117.603 47.66C117.863 48.13 118.213 48.495 118.653 48.755C119.103 49.005 119.608 49.13 120.168 49.13ZM131.312 42.05C132.052 42.05 132.722 42.22 133.322 42.56C133.922 42.89 134.392 43.36 134.732 43.97C135.072 44.58 135.242 45.275 135.242 46.055C135.242 46.845 135.072 47.545 134.732 48.155C134.392 48.765 133.922 49.24 133.322 49.58C132.732 49.91 132.062 50.075 131.312 50.075C130.672 50.075 130.092 49.945 129.572 49.685C129.062 49.415 128.642 49.025 128.312 48.515V52.91H127.247V42.11H128.267V43.67C128.587 43.15 129.007 42.75 129.527 42.47C130.057 42.19 130.652 42.05 131.312 42.05ZM131.237 49.13C131.787 49.13 132.287 49.005 132.737 48.755C133.187 48.495 133.537 48.13 133.787 47.66C134.047 47.19 134.177 46.655 134.177 46.055C134.177 45.455 134.047 44.925 133.787 44.465C133.537 43.995 133.187 43.63 132.737 43.37C132.287 43.11 131.787 42.98 131.237 42.98C130.677 42.98 130.172 43.11 129.722 43.37C129.282 43.63 128.932 43.995 128.672 44.465C128.422 44.925 128.297 45.455 128.297 46.055C128.297 46.655 128.422 47.19 128.672 47.66C128.932 48.13 129.282 48.495 129.722 48.755C130.172 49.005 130.677 49.13 131.237 49.13ZM138.198 50.075C137.978 50.075 137.788 49.995 137.628 49.835C137.478 49.675 137.403 49.48 137.403 49.25C137.403 49.02 137.478 48.83 137.628 48.68C137.788 48.52 137.978 48.44 138.198 48.44C138.418 48.44 138.608 48.52 138.768 48.68C138.928 48.83 139.008 49.02 139.008 49.25C139.008 49.48 138.928 49.675 138.768 49.835C138.608 49.995 138.418 50.075 138.198 50.075Z" fill="#A3A2A1"/>
<path d="M30.6945 6.8231C31.8801 5.9681 33.2595 5.7002 34.2 5.7002H38.3211C39.6122 5.70009 40.879 6.05078 41.9862 6.7148L47.0677 9.7643C47.4893 10.0176 47.8381 10.3756 48.0803 10.8036C48.3226 11.2316 48.4499 11.715 48.45 12.2067V15.6752C48.45 16.809 47.9996 17.8964 47.1979 18.6981C46.3962 19.4998 45.3088 19.9502 44.175 19.9502H42.75V42.8585C43.9498 43.0437 45.1525 43.4912 46.1557 44.3262C47.6092 45.5346 48.45 47.3957 48.45 49.8752C48.45 50.2531 48.2999 50.6156 48.0326 50.8828C47.7654 51.1501 47.4029 51.3002 47.025 51.3002H14.25C12.4562 51.3004 10.7078 50.7364 9.25227 49.6881C7.79671 48.6398 6.70773 47.1603 6.13945 45.4589C5.57117 43.7575 5.55238 41.9205 6.08575 40.2079C6.61912 38.4953 7.67763 36.9937 9.11144 35.9159C9.41395 35.6977 9.78997 35.6067 10.1588 35.6627C10.5276 35.7186 10.8597 35.9169 11.084 36.215C11.3082 36.5131 11.4066 36.8872 11.358 37.257C11.3095 37.6269 11.1179 37.9629 10.8243 38.193C9.86802 38.9115 9.16199 39.9126 8.80616 41.0545C8.45034 42.1964 8.46275 43.4214 8.84165 44.5559C9.22055 45.6903 9.94673 46.6769 10.9174 47.3758C11.888 48.0747 13.0539 48.4506 14.25 48.4502C15.0708 48.4502 15.5895 48.2507 15.9315 48.0227C16.2696 47.7894 16.54 47.4708 16.7152 47.0993C16.9442 46.631 17.0751 46.1209 17.1 45.6002V45.4719L17.1114 45.1584C17.2059 43.5088 17.454 41.8715 17.8524 40.2678C18.6019 37.2753 20.121 33.4392 23.2161 30.3413C28.4715 25.0887 28.5 18.0435 28.5 15.6752V11.4002C28.5 9.22565 29.4405 7.7294 30.6945 6.8231ZM31.1334 19.6652C30.6916 23.2448 29.3407 28.2494 25.2339 32.3591C22.629 34.9611 21.298 38.25 20.6197 40.9575C20.2664 42.3771 20.045 43.8264 19.9585 45.2867C19.9547 45.3693 19.9519 45.452 19.95 45.5346V45.6942L19.9386 45.8852C19.8756 46.7793 19.6333 47.6517 19.2261 48.4502H36.8191C36.5341 47.5382 35.9556 46.6005 34.9609 46.079C34.2825 45.7428 33.5319 45.5784 32.775 45.6002H29.925C29.5471 45.6002 29.1846 45.4501 28.9174 45.1828C28.6501 44.9156 28.5 44.5531 28.5 44.1752C28.5 43.7973 28.6501 43.4348 28.9174 43.1676C29.1846 42.9003 29.5471 42.7502 29.925 42.7502H32.775C33.2766 42.7502 33.7497 42.7901 34.2 42.8642V35.6252C34.2 35.2473 34.3501 34.8848 34.6174 34.6176C34.8846 34.3503 35.2471 34.2002 35.625 34.2002C36.0029 34.2002 36.3654 34.3503 36.6326 34.6176C36.8999 34.8848 37.05 35.2473 37.05 35.6252V44.027C38.703 45.2183 39.4639 46.991 39.7518 48.4502H45.4518C45.238 47.5154 44.8105 46.914 44.3317 46.5179C43.5993 45.9051 42.5362 45.6002 41.325 45.6002C40.9471 45.6002 40.5846 45.4501 40.3174 45.1828C40.0501 44.9156 39.9 44.5531 39.9 44.1752V18.5252C39.9 18.1473 40.0501 17.7848 40.3174 17.5176C40.5846 17.2503 40.9471 17.1002 41.325 17.1002H44.175C44.5529 17.1002 44.9154 16.9501 45.1826 16.6828C45.4499 16.4156 45.6 16.0531 45.6 15.6752V12.2067L40.5213 9.15725C39.8565 8.75924 39.096 8.54941 38.3211 8.5502H34.2C33.7155 8.5502 32.9574 8.70695 32.3617 9.1373C31.8345 9.5135 31.35 10.1547 31.35 11.4002V15.6752C31.35 15.9231 31.4355 16.325 31.6521 16.6242C31.8145 16.8522 32.0995 17.1002 32.775 17.1002C33.4504 17.1002 33.7354 16.8494 33.8979 16.6242C34.0877 16.3435 34.1925 16.014 34.2 15.6752C34.2 15.2973 34.3501 14.9348 34.6174 14.6676C34.8846 14.4003 35.2471 14.2502 35.625 14.2502C36.0029 14.2502 36.3654 14.4003 36.6326 14.6676C36.8999 14.9348 37.05 15.2973 37.05 15.6752C37.05 16.3791 36.8505 17.4023 36.2121 18.2886C35.5195 19.2491 34.3795 19.9502 32.775 19.9502C32.215 19.9555 31.6588 19.859 31.1334 19.6652Z" fill="#DEAD6F"/>
</svg>
