<svg width="18" height="18" viewBox="0 0 18 18" fill="none" xmlns="http://www.w3.org/2000/svg">
<path d="M17.5609 16.0441L13.518 12.0012C14.4913 10.7054 15.0168 9.12814 15.015 7.5075C15.015 3.36789 11.6471 0 7.5075 0C3.36789 0 0 3.36789 0 7.5075C0 11.6471 3.36789 15.015 7.5075 15.015C9.12814 15.0168 10.7054 14.4913 12.0012 13.518L16.0441 17.5609C16.2488 17.7438 16.5157 17.8415 16.7901 17.8338C17.0645 17.8261 17.3255 17.7137 17.5196 17.5196C17.7137 17.3255 17.8261 17.0645 17.8338 16.7901C17.8415 16.5157 17.7438 16.2488 17.5609 16.0441ZM2.145 7.5075C2.145 6.4469 2.45951 5.41011 3.04874 4.52826C3.63798 3.6464 4.47549 2.95907 5.45536 2.5532C6.43523 2.14732 7.51345 2.04113 8.55367 2.24804C9.5939 2.45495 10.5494 2.96568 11.2994 3.71564C12.0493 4.4656 12.56 5.42111 12.767 6.46133C12.9739 7.50155 12.8677 8.57977 12.4618 9.55964C12.0559 10.5395 11.3686 11.377 10.4867 11.9663C9.60489 12.5555 8.5681 12.87 7.5075 12.87C6.0858 12.8683 4.72282 12.3028 3.71752 11.2975C2.71223 10.2922 2.14671 8.9292 2.145 7.5075Z" fill="#41403E"/>
</svg>
